<svg width="128" height="31" viewBox="0 0 128 31" fill="none" xmlns="http://www.w3.org/2000/svg">
<g opacity="0.4">
<path d="M15.5 31C6.95 31 0 24.05 0 15.5C0 6.95 6.95 0 15.5 0C24.05 0 31 6.95 31 15.5C31 24.05 24.05 31 15.5 31ZM15.5 1C7.5 1 1 7.5 1 15.5C1 23.5 7.5 30 15.5 30C23.5 30 30 23.5 30 15.5C30 7.5 23.5 1 15.5 1Z" fill="white"/>
</g>
<path d="M15.5 17.5C16.6046 17.5 17.5 16.6046 17.5 15.5C17.5 14.3954 16.6046 13.5 15.5 13.5C14.3954 13.5 13.5 14.3954 13.5 15.5C13.5 16.6046 14.3954 17.5 15.5 17.5Z" fill="white"/>
<path d="M56.74 23.4998H52.97L51.47 19.5998H44.6L43.18 23.4998H39.5L46.19 6.31982H49.86L56.74 23.4998ZM50.35 16.6998L47.98 10.3198L45.66 16.6998H50.35Z" fill="white"/>
<path d="M57.78 23.4998V6.31982H61.25V23.4998H57.78Z" fill="white"/>
<path d="M63.85 23.4998V6.31982H69.42C71.53 6.31982 72.8999 6.40982 73.5399 6.57982C74.5199 6.83982 75.3499 7.39982 76.0099 8.25982C76.6699 9.11982 77.0099 10.2398 77.0099 11.6098C77.0099 12.6598 76.82 13.5498 76.44 14.2698C76.06 14.9898 75.5699 15.5498 74.9799 15.9598C74.3899 16.3698 73.79 16.6398 73.18 16.7698C72.35 16.9298 71.15 17.0198 69.58 17.0198H67.32V23.4998H63.85ZM67.32 9.22982V14.1098H69.22C70.59 14.1098 71.5 14.0198 71.96 13.8398C72.42 13.6598 72.7799 13.3798 73.0399 12.9998C73.2999 12.6198 73.43 12.1698 73.43 11.6598C73.43 11.0398 73.25 10.5198 72.88 10.1098C72.51 9.69982 72.05 9.44982 71.49 9.34982C71.08 9.26982 70.24 9.22982 68.99 9.22982H67.31H67.32Z" fill="white"/>
<path d="M78.46 15.02C78.46 13.27 78.72 11.8 79.25 10.61C79.64 9.73002 80.17 8.95002 80.85 8.25002C81.53 7.55002 82.27 7.04002 83.07 6.70002C84.14 6.25002 85.37 6.02002 86.77 6.02002C89.3 6.02002 91.33 6.81002 92.85 8.38002C94.37 9.95002 95.13 12.13 95.13 14.93C95.13 17.73 94.38 19.87 92.87 21.44C91.36 23.01 89.35 23.79 86.82 23.79C84.29 23.79 82.2299 23.01 80.7299 21.45C79.2299 19.89 78.47 17.74 78.47 15.01L78.46 15.02ZM82.03 14.9C82.03 16.85 82.48 18.32 83.38 19.32C84.28 20.32 85.42 20.83 86.8 20.83C88.18 20.83 89.32 20.33 90.2 19.34C91.08 18.35 91.53 16.85 91.53 14.86C91.53 12.87 91.1 11.42 90.24 10.45C89.38 9.48002 88.23 9.00002 86.8 9.00002C85.37 9.00002 84.22 9.49002 83.34 10.47C82.46 11.45 82.03 12.93 82.03 14.91V14.9Z" fill="white"/>
<path d="M108.13 17.18L111.49 18.25C110.97 20.13 110.12 21.52 108.92 22.43C107.72 23.34 106.2 23.8 104.36 23.8C102.08 23.8 100.2 23.02 98.7401 21.46C97.2801 19.9 96.54 17.77 96.54 15.07C96.54 12.21 97.2801 9.99004 98.7501 8.41004C100.22 6.83004 102.17 6.04004 104.57 6.04004C106.67 6.04004 108.38 6.66004 109.69 7.90004C110.47 8.63004 111.06 9.69004 111.45 11.06L108.02 11.88C107.82 10.99 107.39 10.29 106.75 9.77004C106.11 9.25004 105.32 9.00004 104.4 9.00004C103.13 9.00004 102.09 9.46004 101.3 10.37C100.51 11.28 100.11 12.76 100.11 14.81C100.11 16.98 100.5 18.53 101.28 19.45C102.06 20.37 103.08 20.83 104.33 20.83C105.25 20.83 106.04 20.54 106.71 19.95C107.38 19.36 107.85 18.44 108.14 17.18H108.13Z" fill="white"/>
<path d="M113.78 23.4998V6.31982H117.25V13.0798H124.05V6.31982H127.52V23.4998H124.05V15.9898H117.25V23.4998H113.78Z" fill="white"/>
</svg>
