<svg width="85" height="92" viewBox="0 0 85 92" fill="none" xmlns="http://www.w3.org/2000/svg">
<g opacity="0.4">
<path d="M42.8199 62C25.7299 62 11.8199 48.09 11.8199 31C11.8199 13.91 25.7299 0 42.8199 0C59.9099 0 73.8199 13.91 73.8199 31C73.8199 48.09 59.9099 62 42.8199 62ZM42.8199 2C26.8299 2 13.8199 15.01 13.8199 31C13.8199 46.99 26.8299 60 42.8199 60C58.8099 60 71.8199 46.99 71.8199 31C71.8199 15.01 58.8099 2 42.8199 2Z" fill="white"/>
</g>
<path d="M42.8199 35C45.0291 35 46.8199 33.2091 46.8199 31C46.8199 28.7909 45.0291 27 42.8199 27C40.6108 27 38.8199 28.7909 38.8199 31C38.8199 33.2091 40.6108 35 42.8199 35Z" fill="white"/>
<path d="M0 91.0002L6.79 73.7202H8.64L15.26 91.0002H13.58L11.59 85.5802H3.72L1.68 91.0002H0ZM4.27 84.1802H11.04L7.66 75.1102L4.28 84.1802H4.27Z" fill="white"/>
<path d="M17.47 91.0002V73.7202H19.1V91.0002H17.47Z" fill="white"/>
<path d="M22.8 91.0002V73.7202H29.11C30.23 73.7202 31.1501 73.8502 31.8801 74.1002C32.6101 74.3602 33.18 74.7102 33.61 75.1602C34.03 75.6102 34.33 76.1202 34.5 76.7102C34.67 77.3002 34.75 77.9102 34.75 78.5502C34.75 79.5102 34.55 80.3002 34.16 80.9302C33.77 81.5502 33.26 82.0502 32.64 82.4102C32.02 82.7702 31.3101 83.0202 30.5201 83.1702C29.7301 83.3102 28.9301 83.3902 28.1301 83.3902H24.4301V91.0202H22.8V91.0002ZM28.1801 81.9702C28.9501 81.9702 29.6401 81.9202 30.2401 81.8302C30.8501 81.7302 31.3601 81.5502 31.7901 81.2902C32.2201 81.0302 32.5401 80.6702 32.7701 80.2102C33.0001 79.7502 33.1201 79.1602 33.1201 78.4202C33.1201 77.3302 32.76 76.5102 32.05 75.9502C31.34 75.3902 30.2101 75.1102 28.6501 75.1102H24.4301V81.9702H28.1701H28.1801Z" fill="white"/>
<path d="M36.17 82.3798C36.17 81.1198 36.34 79.9298 36.69 78.8298C37.03 77.7298 37.54 76.7598 38.21 75.9398C38.88 75.1198 39.71 74.4598 40.71 73.9798C41.7 73.4998 42.85 73.2598 44.14 73.2598C45.43 73.2598 46.66 73.4998 47.68 73.9698C48.7 74.4398 49.54 75.0898 50.22 75.9098C50.9 76.7298 51.41 77.6998 51.76 78.8098C52.1 79.9198 52.28 81.1098 52.28 82.3698C52.28 83.6298 52.11 84.7898 51.76 85.8898C51.42 86.9898 50.91 87.9498 50.24 88.7698C49.57 89.5898 48.73 90.2498 47.72 90.7298C46.71 91.2098 45.54 91.4498 44.22 91.4498C42.9 91.4498 41.72 91.2098 40.72 90.7298C39.71 90.2498 38.87 89.5998 38.2 88.7698C37.53 87.9398 37.02 86.9898 36.69 85.8898C36.36 84.7898 36.19 83.6198 36.19 82.3698L36.17 82.3798ZM44.23 90.0598C45.35 90.0598 46.31 89.8498 47.12 89.4198C47.93 88.9998 48.59 88.4298 49.11 87.7298C49.63 87.0298 50.01 86.2098 50.26 85.2798C50.51 84.3498 50.63 83.3798 50.63 82.3798C50.63 81.1798 50.48 80.0998 50.19 79.1498C49.9 78.1998 49.47 77.3898 48.91 76.7098C48.35 76.0398 47.67 75.5298 46.87 75.1698C46.07 74.8198 45.17 74.6398 44.18 74.6398C43.08 74.6398 42.12 74.8598 41.31 75.2898C40.5 75.7198 39.84 76.2898 39.32 77.0098C38.8 77.7198 38.42 78.5398 38.17 79.4698C37.92 80.3998 37.8 81.3698 37.8 82.3698C37.8 83.3698 37.92 84.3698 38.17 85.2998C38.42 86.2298 38.8 87.0398 39.32 87.7498C39.84 88.4498 40.5 89.0098 41.31 89.4298C42.12 89.8498 43.09 90.0498 44.23 90.0498V90.0598Z" fill="white"/>
<path d="M67.08 78.73C66.74 77.26 66.12 76.21 65.21 75.59C64.3 74.97 63.11 74.65 61.63 74.65C60.59 74.65 59.69 74.86 58.94 75.27C58.19 75.68 57.57 76.25 57.08 76.95C56.59 77.65 56.23 78.47 56 79.39C55.77 80.31 55.65 81.28 55.65 82.31C55.65 83.27 55.75 84.21 55.95 85.14C56.15 86.07 56.48 86.9 56.95 87.62C57.41 88.35 58.04 88.94 58.82 89.38C59.6 89.83 60.59 90.05 61.77 90.05C62.51 90.05 63.18 89.93 63.79 89.69C64.4 89.45 64.93 89.12 65.39 88.69C65.85 88.26 66.23 87.77 66.54 87.19C66.85 86.61 67.09 85.98 67.25 85.29H68.95C68.76 86.12 68.48 86.91 68.11 87.65C67.74 88.39 67.26 89.05 66.66 89.61C66.06 90.17 65.33 90.61 64.48 90.94C63.62 91.27 62.62 91.43 61.47 91.43C60.14 91.43 59.01 91.19 58.06 90.7C57.12 90.21 56.34 89.55 55.74 88.72C55.14 87.89 54.7 86.92 54.43 85.83C54.16 84.73 54.02 83.57 54.02 82.34C54.02 80.69 54.22 79.29 54.63 78.14C55.04 76.99 55.6 76.05 56.32 75.32C57.04 74.59 57.89 74.06 58.86 73.74C59.84 73.41 60.9 73.25 62.05 73.25C62.93 73.25 63.75 73.37 64.51 73.6C65.27 73.83 65.94 74.18 66.53 74.64C67.12 75.1 67.59 75.68 67.97 76.36C68.35 77.04 68.61 77.83 68.75 78.72H67.07L67.08 78.73Z" fill="white"/>
<path d="M71.42 91.0002V73.7202H73.05V81.1402H83.27V73.7202H84.9V91.0002H83.27V82.5302H73.05V91.0002H71.42Z" fill="white"/>
</svg>
