<svg width="128" height="31" viewBox="0 0 128 31" fill="none" xmlns="http://www.w3.org/2000/svg">
<g opacity="0.4">
<path d="M15.5 31C6.95 31 0 24.05 0 15.5C0 6.95 6.95 0 15.5 0C24.05 0 31 6.95 31 15.5C31 24.05 24.05 31 15.5 31ZM15.5 1C7.5 1 1 7.51 1 15.5C1 23.49 7.5 30 15.5 30C23.5 30 30 23.5 30 15.5C30 7.5 23.5 1 15.5 1Z" fill="#111111"/>
</g>
<path d="M15.5 17.5C16.6046 17.5 17.5 16.6046 17.5 15.5C17.5 14.3954 16.6046 13.5 15.5 13.5C14.3954 13.5 13.5 14.3954 13.5 15.5C13.5 16.6046 14.3954 17.5 15.5 17.5Z" fill="#111111"/>
<path d="M56.74 23.4998H52.97L51.47 19.5998H44.6L43.18 23.4998H39.5L46.19 6.31982H49.86L56.74 23.4998ZM50.35 16.7098L47.98 10.3298L45.66 16.7098H50.35Z" fill="#111111"/>
<path d="M57.78 23.4998V6.31982H61.25V23.4998H57.78Z" fill="#111111"/>
<path d="M63.85 23.4998V6.31982H69.42C71.53 6.31982 72.9 6.40982 73.54 6.57982C74.52 6.83982 75.35 7.39982 76.01 8.25982C76.67 9.11982 77.01 10.2398 77.01 11.6098C77.01 12.6598 76.82 13.5498 76.44 14.2698C76.06 14.9898 75.57 15.5498 74.98 15.9598C74.39 16.3698 73.79 16.6398 73.18 16.7698C72.35 16.9298 71.15 17.0198 69.58 17.0198H67.32V23.4998H63.85ZM67.32 9.22982V14.1098H69.22C70.59 14.1098 71.5 14.0198 71.96 13.8398C72.42 13.6598 72.78 13.3798 73.04 12.9998C73.3 12.6198 73.43 12.1698 73.43 11.6598C73.43 11.0398 73.25 10.5198 72.88 10.1098C72.51 9.69982 72.05 9.44982 71.49 9.34982C71.08 9.26982 70.24 9.22982 68.99 9.22982H67.31H67.32Z" fill="#111111"/>
<path d="M78.46 15.02C78.46 13.27 78.72 11.8 79.25 10.61C79.64 9.73002 80.17 8.95002 80.85 8.25002C81.53 7.55002 82.27 7.04002 83.07 6.70002C84.14 6.25002 85.37 6.02002 86.77 6.02002C89.3 6.02002 91.33 6.81002 92.85 8.38002C94.37 9.95002 95.13 12.13 95.13 14.93C95.13 17.73 94.38 19.87 92.87 21.44C91.36 23.01 89.35 23.79 86.82 23.79C84.29 23.79 82.23 23.01 80.73 21.45C79.23 19.89 78.47 17.74 78.47 15.01L78.46 15.02ZM82.04 14.9C82.04 16.85 82.49 18.32 83.39 19.32C84.29 20.32 85.43 20.83 86.81 20.83C88.19 20.83 89.33 20.33 90.21 19.34C91.09 18.35 91.54 16.85 91.54 14.86C91.54 12.87 91.11 11.42 90.25 10.45C89.39 9.48002 88.24 9.00002 86.81 9.00002C85.38 9.00002 84.23 9.49002 83.35 10.47C82.47 11.45 82.04 12.93 82.04 14.91V14.9Z" fill="#111111"/>
<path d="M108.13 17.1898L111.49 18.2598C110.97 20.1398 110.12 21.5298 108.92 22.4398C107.72 23.3498 106.2 23.8098 104.36 23.8098C102.08 23.8098 100.2 23.0298 98.74 21.4698C97.28 19.9098 96.54 17.7798 96.54 15.0798C96.54 12.2198 97.28 9.99981 98.75 8.41981C100.22 6.83981 102.17 6.0498 104.57 6.0498C106.67 6.0498 108.38 6.66981 109.69 7.90981C110.47 8.63981 111.06 9.69981 111.45 11.0698L108.02 11.8898C107.82 10.9998 107.39 10.2998 106.75 9.77981C106.11 9.25981 105.32 9.0098 104.4 9.0098C103.13 9.0098 102.09 9.4698 101.3 10.3798C100.51 11.2898 100.11 12.7698 100.11 14.8198C100.11 16.9898 100.5 18.5398 101.28 19.4598C102.06 20.3798 103.08 20.8398 104.33 20.8398C105.25 20.8398 106.04 20.5498 106.71 19.9598C107.38 19.3698 107.85 18.4498 108.14 17.1898H108.13Z" fill="#111111"/>
<path d="M113.79 23.4998V6.31982H117.26V13.0798H124.06V6.31982H127.53V23.4998H124.06V15.9898H117.26V23.4998H113.79Z" fill="#111111"/>
</svg>
